<svg enable-background="new 0 0 512 512" viewBox="0 0 512 512" xmlns="http://www.w3.org/2000/svg"><path d="m288.008 252.26-53.854 53.854-191.238 191.237c-7.801 7.801-20.458 7.801-28.27 0-3.894-3.906-5.853-9.021-5.853-14.135s1.959-10.229 5.853-14.135l245.104-245.103z" fill="#fd5d65"/><path d="m288.008 252.26-53.854 53.853-6.709-21.56-21.571-6.698 53.876-53.877z" fill="#e54e5c"/><path d="m393.685 276.002-77.852-.997-44.951 63.578-16-51.496-7.108-22.862-74.347-23.109 63.566-44.95-.997-77.854 62.393 46.569 25.431-8.621 48.306-16.388-24.998 73.737z" fill="#fec95b"/><path d="m393.685 276.002-77.854-.997-44.95 63.578-16-51.496c77.15-24.739 68.939-130.827 68.939-130.827l48.305-16.387-24.997 73.736z" fill="#fce481"/><path d="m356.942 212.052 7.56-22.297c1.56-4.602-.904-9.596-5.506-11.157-4.596-1.56-9.595.904-11.157 5.506l-9.046 26.678c-.93 2.743-.452 5.767 1.281 8.087l35.904 48.11-60.027-.767c-2.936-.055-5.623 1.353-7.295 3.717l-34.663 49.014-17.819-57.326c-.859-2.765-3.024-4.93-5.79-5.79l-57.326-17.819 49.012-34.662c2.365-1.672 3.755-4.4 3.717-7.295l-.766-60.027 48.113 35.904c2.319 1.731 5.345 2.212 8.087 1.281l56.852-19.279-1.039 3.064c-1.56 4.602.904 9.596 5.505 11.157 4.604 1.564 9.598-.903 11.158-5.506l6.765-19.946c1.076-3.172.258-6.678-2.11-9.046-2.369-2.368-5.876-3.189-9.046-2.11l-69.354 23.518-58.692-43.8c-2.684-2.002-6.271-2.307-9.256-.788-2.983 1.52-4.846 4.603-4.802 7.951l.935 73.227-59.791 42.284c-2.734 1.933-4.134 5.252-3.609 8.56.523 3.307 2.88 6.031 6.077 7.025l38.879 12.086-109.706 109.702c-3.436 3.436-3.436 9.007 0 12.441 1.718 1.717 3.971 2.577 6.222 2.577s4.503-.859 6.222-2.577l35.906-35.906 15.823 15.822-127.465 127.463c-2.113 2.113-4.922 3.276-7.91 3.276-2.989 0-5.798-1.164-7.912-3.277s-3.277-4.922-3.277-7.911 1.164-5.798 3.279-7.912l73.571-73.571c3.436-3.436 3.436-9.006 0-12.441-3.437-3.436-9.006-3.436-12.442 0l-73.572 73.571c-5.437 5.437-8.432 12.665-8.432 20.353s2.995 14.917 8.432 20.353c5.437 5.438 12.665 8.431 20.354 8.431 7.688 0 14.916-2.994 20.353-8.431l201.257-201.258 12.085 38.878c.995 3.199 3.717 5.554 7.025 6.079.46.073.92.108 1.377.108 2.827 0 5.517-1.364 7.181-3.717l42.285-59.791 73.227.936h.113c3.304 0 6.336-1.853 7.839-4.804 1.52-2.983 1.214-6.572-.788-9.256zm-156.017 114.846-15.823-15.822 12.782-12.782 15.823 15.822zm-40.146 8.501 11.882-11.88 15.823 15.822-11.882 11.882zm65.371-33.724-15.823-15.823 18.346-18.346 12.07 3.753 3.751 12.07z"/><path d="m436.627 62.932-27.648 27.648c-3.436 3.436-3.436 9.006 0 12.441 1.718 1.717 3.971 2.577 6.222 2.577s4.503-.859 6.222-2.577l27.648-27.648c3.436-3.436 3.436-9.006 0-12.441-3.438-3.436-9.008-3.436-12.444 0z"/><path d="m297.141 56.697c4.86 0 8.798-3.939 8.798-8.798v-39.101c0-4.859-3.938-8.798-8.798-8.798s-8.798 3.939-8.798 8.798v39.1c0 4.86 3.938 8.799 8.798 8.799z"/><path d="m297.141 373.025c-4.86 0-8.798 3.939-8.798 8.798v39.1c0 4.859 3.938 8.798 8.798 8.798s8.798-3.939 8.798-8.798v-39.1c0-4.859-3.939-8.798-8.798-8.798z"/><path d="m172.859 103.022c1.718 1.717 3.971 2.577 6.222 2.577s4.503-.859 6.222-2.577c3.436-3.436 3.436-9.006 0-12.441l-27.648-27.648c-3.437-3.436-9.006-3.436-12.442 0s-3.436 9.006 0 12.441z"/><path d="m421.422 326.7c-3.437-3.436-9.007-3.436-12.442 0s-3.436 9.006 0 12.441l27.648 27.648c1.718 1.717 3.971 2.577 6.222 2.577s4.503-.859 6.222-2.577c3.436-3.436 3.436-9.007 0-12.441z"/><path d="m91.078 223.658h39.102c4.86 0 8.798-3.939 8.798-8.798s-3.938-8.798-8.798-8.798h-39.102c-4.86 0-8.798 3.939-8.798 8.798s3.938 8.798 8.798 8.798z"/><path d="m503.202 206.063h-39.1c-4.86 0-8.798 3.939-8.798 8.798s3.938 8.798 8.798 8.798h39.1c4.86 0 8.798-3.939 8.798-8.798s-3.938-8.798-8.798-8.798z"/></svg>